<svg xmlns="http://www.w3.org/2000/svg" width="48" height="48" viewBox="0 0 48 48">
  <rect width="48" height="48" fill="#09090b" rx="8"/>
  <g transform="translate(24,24) scale(1.2)">
    <path d="M-8-12 C-14-12 -19-7 -19-1 L-19 3 C-19 5 -17.5 7 -15.5 8 L-15.5 12 C-15.5 13 -14.5 14 -13.5 14 L-11.5 14 C-10.5 14 -9.5 13 -9.5 12 L-9.5 9 C-8.5 9.5 -7.5 10 -6.5 10 L-5.5 10 C-4.5 10 -3.5 9.5 -2.5 9 L-2.5 12 C-2.5 13 -1.5 14 -0.5 14 L1.5 14 C2.5 14 3.5 13 3.5 12 L3.5 8 C5.5 7 7 5 7 3 L7 -1 C7 -7 2 -12 -4 -12 Z" fill="#ffdd2d"/>
    <circle cx="-10" cy="-2" r="2.5" fill="#09090b"/>
    <circle cx="2" cy="-2" r="2.5" fill="#09090b"/>
    <path d="M-11 3 Q-8 7 -5 3" stroke="#09090b" stroke-width="1.2" fill="none" stroke-linecap="round"/>
    <path d="M-1 3 Q2 7 5 3" stroke="#09090b" stroke-width="1.2" fill="none" stroke-linecap="round"/>
  </g>
</svg>
