<svg xmlns="http://www.w3.org/2000/svg" width="512" height="512" viewBox="0 0 512 512">
  <rect width="512" height="512" fill="#09090b" rx="60"/>
  <g transform="translate(256,256) scale(4.5)">
    <path d="M-16-24 C-28-24 -38-14 -38-2 L-38 6 C-38 10 -35 14 -31 16 L-31 24 C-31 26 -29 28 -27 28 L-23 28 C-21 28 -19 26 -19 24 L-19 18 C-17 19 -15 20 -13 20 L-11 20 C-9 20 -7 19 -5 18 L-5 24 C-5 26 -3 28 -1 28 L3 28 C5 28 7 26 7 24 L7 16 C11 14 14 10 14 6 L14 -2 C14 -14 4 -24 -8 -24 Z" fill="#ffdd2d"/>
    <circle cx="-20" cy="-4" r="5" fill="#09090b"/>
    <circle cx="4" cy="-4" r="5" fill="#09090b"/>
    <path d="M-22 6 Q-16 14 -10 6" stroke="#09090b" stroke-width="2" fill="none" stroke-linecap="round"/>
    <path d="M-2 6 Q4 14 10 6" stroke="#09090b" stroke-width="2" fill="none" stroke-linecap="round"/>
  </g>
</svg>
